<?xml version="1.0" encoding="UTF-8" standalone="no"?>
<!DOCTYPE svg PUBLIC "-//W3C//DTD SVG 1.1//EN" "http://www.w3.org/Graphics/SVG/1.1/DTD/svg11.dtd">
<svg width="100%" height="100%" viewBox="0 0 800 800" version="1.1" xmlns="http://www.w3.org/2000/svg" xmlns:xlink="http://www.w3.org/1999/xlink" xml:space="preserve" xmlns:serif="http://www.serif.com/" style="fill-rule:evenodd;clip-rule:evenodd;stroke-linejoin:round;stroke-miterlimit:2;">
    <g transform="matrix(1.927711,0,0,1.927711,0,0)">
        <g>
            <path d="M325.662,3.768C324.325,1.437 321.844,0 319.157,0L164.555,0C161.337,0 158.477,2.053 157.448,5.102L91.19,201.421C90.418,203.71 90.796,206.231 92.204,208.193C93.613,210.155 95.881,211.319 98.297,211.319L161.109,211.319L88.817,404.876C87.539,408.298 88.913,412.144 92.071,413.982C93.251,414.668 94.551,415 95.84,415C98,415 100.127,414.068 101.596,412.313L302.824,171.823C304.693,169.589 305.1,166.475 303.867,163.836C302.635,161.197 299.985,159.51 297.072,159.51L238.978,159.51L325.632,11.286C326.988,8.966 327,6.099 325.662,3.768ZM219.429,163.223C218.073,165.543 218.061,168.41 219.399,170.741C220.736,173.072 223.217,174.509 225.904,174.509L281.015,174.509L118.189,369.107L178.943,206.443C179.803,204.141 179.48,201.563 178.078,199.543C176.677,197.524 174.375,196.319 171.917,196.319L108.744,196.319L169.939,15L306.084,15L219.429,163.223Z" style="fill:white;fill-rule:nonzero;"/>
        </g>
    </g>
</svg>
